<?xml version="1.0" encoding="UTF-8"?>
<svg width="700pt" height="700pt" version="1.1" viewBox="0 0 700 700" xmlns="http://www.w3.org/2000/svg" xmlns:xlink="http://www.w3.org/1999/xlink"  style="margin-top:1em"> 
 <defs>
  <symbol id="t" overflow="visible">
   <path d="m3.6562-0.21875c-0.1875 0.09375-0.38672 0.16797-0.59375 0.21875-0.19922 0.050781-0.40625 0.078125-0.625 0.078125-0.66797 0-1.1992-0.17969-1.5938-0.54688-0.38672-0.375-0.57812-0.87891-0.57812-1.5156 0-0.64453 0.19141-1.1484 0.57812-1.5156 0.39453-0.375 0.92578-0.5625 1.5938-0.5625 0.21875 0 0.42578 0.027344 0.625 0.078125 0.20703 0.054687 0.40625 0.125 0.59375 0.21875v0.82812c-0.1875-0.125-0.375-0.21875-0.5625-0.28125-0.17969-0.0625-0.37109-0.09375-0.57812-0.09375-0.36719 0-0.65625 0.12109-0.875 0.35938-0.21094 0.23047-0.3125 0.55469-0.3125 0.96875 0 0.40625 0.10156 0.73047 0.3125 0.96875 0.21875 0.23047 0.50781 0.34375 0.875 0.34375 0.20703 0 0.39844-0.023437 0.57812-0.078125 0.1875-0.0625 0.375-0.16016 0.5625-0.29688z"/>
  </symbol>
  <symbol id="d" overflow="visible">
   <path d="m2.6875-2.1719c-0.085938-0.039063-0.16797-0.070313-0.25-0.09375-0.085938-0.019531-0.16797-0.03125-0.25-0.03125-0.25 0-0.44531 0.085937-0.57812 0.25-0.125 0.15625-0.1875 0.38281-0.1875 0.67188v1.375h-0.96875v-2.9844h0.96875v0.48438c0.11328-0.19531 0.25-0.33594 0.40625-0.42188 0.16406-0.09375 0.35938-0.14062 0.57812-0.14062h0.10938c0.039063 0 0.09375 0.007812 0.15625 0.015625z"/>
  </symbol>
  <symbol id="a" overflow="visible">
   <path d="m3.4375-1.5v0.26562h-2.2344c0.03125 0.23047 0.11328 0.40234 0.25 0.51562 0.13281 0.10547 0.32812 0.15625 0.57812 0.15625 0.20703 0 0.41406-0.023438 0.625-0.078125 0.20703-0.0625 0.42188-0.15625 0.64062-0.28125v0.73438c-0.21875 0.09375-0.44531 0.16406-0.67188 0.20312-0.23047 0.039062-0.45312 0.0625-0.67188 0.0625-0.54297 0-0.96484-0.13281-1.2656-0.40625-0.30469-0.28125-0.45312-0.67188-0.45312-1.1719 0-0.47656 0.14453-0.85938 0.4375-1.1406 0.30078-0.28125 0.70703-0.42188 1.2188-0.42188 0.46875 0 0.84375 0.14062 1.125 0.42188s0.42188 0.66406 0.42188 1.1406zm-0.96875-0.32812c0-0.17578-0.058594-0.31641-0.17188-0.42188-0.10547-0.11328-0.24219-0.17188-0.40625-0.17188-0.1875 0-0.33984 0.054687-0.45312 0.15625-0.11719 0.10547-0.1875 0.25-0.21875 0.4375z"/>
  </symbol>
  <symbol id="l" overflow="visible">
   <path d="m1.7969-1.3438c-0.19922 0-0.35156 0.039062-0.45312 0.10938-0.09375 0.0625-0.14062 0.16406-0.14062 0.29688 0 0.11719 0.035156 0.21094 0.10938 0.28125 0.082031 0.0625 0.19531 0.09375 0.34375 0.09375 0.17578 0 0.32812-0.0625 0.45312-0.1875s0.1875-0.28516 0.1875-0.48438v-0.10938zm1.4688-0.35938v1.7031h-0.96875v-0.4375c-0.125 0.17969-0.27344 0.30859-0.4375 0.39062-0.15625 0.082031-0.35156 0.125-0.57812 0.125-0.3125 0-0.57031-0.085938-0.76562-0.26562-0.1875-0.1875-0.28125-0.42188-0.28125-0.70312 0-0.35156 0.11719-0.61328 0.35938-0.78125 0.23828-0.16406 0.61719-0.25 1.1406-0.25h0.5625v-0.0625c0-0.15625-0.0625-0.26562-0.1875-0.32812-0.11719-0.070312-0.29688-0.10938-0.54688-0.10938-0.21094 0-0.40234 0.023437-0.57812 0.0625-0.17969 0.042969-0.33984 0.10156-0.48438 0.17188v-0.71875c0.19531-0.050781 0.39844-0.085938 0.60938-0.10938 0.20703-0.03125 0.41406-0.046875 0.625-0.046875 0.53906 0 0.92969 0.10938 1.1719 0.32812 0.23828 0.21094 0.35938 0.55469 0.35938 1.0312z"/>
  </symbol>
  <symbol id="c" overflow="visible">
   <path d="m1.5-3.8438v0.85938h0.98438v0.67188h-0.98438v1.2812c0 0.13672 0.023438 0.23047 0.078125 0.28125 0.0625 0.042969 0.17578 0.0625 0.34375 0.0625h0.48438v0.6875h-0.8125c-0.38672 0-0.65625-0.078125-0.8125-0.23438s-0.23438-0.42188-0.23438-0.79688v-1.2812h-0.46875v-0.67188h0.46875v-0.85938z"/>
  </symbol>
  <symbol id="f" overflow="visible">
   <path d="m2.5-2.5469v-1.6094h0.95312v4.1562h-0.95312v-0.4375c-0.13672 0.17969-0.28125 0.30859-0.4375 0.39062-0.15625 0.082031-0.33984 0.125-0.54688 0.125-0.375 0-0.68359-0.14453-0.92188-0.4375-0.23047-0.28906-0.34375-0.67188-0.34375-1.1406 0-0.45703 0.11328-0.83203 0.34375-1.125 0.23828-0.28906 0.54688-0.4375 0.92188-0.4375 0.19531 0 0.375 0.042969 0.53125 0.125 0.16406 0.085938 0.31641 0.21484 0.45312 0.39062zm-0.64062 1.9375c0.20703 0 0.36328-0.070313 0.46875-0.21875 0.11328-0.15625 0.17188-0.37891 0.17188-0.67188 0-0.28125-0.058594-0.49219-0.17188-0.64062-0.10547-0.15625-0.26172-0.23438-0.46875-0.23438-0.19922 0-0.35547 0.078125-0.46875 0.23438-0.10547 0.14844-0.15625 0.35938-0.15625 0.64062 0 0.29297 0.050781 0.51562 0.15625 0.67188 0.11328 0.14844 0.26953 0.21875 0.46875 0.21875z"/>
  </symbol>
  <symbol id="k" overflow="visible">
   <path d="m2.0469-0.60938c0.20703 0 0.36328-0.070313 0.46875-0.21875 0.11328-0.15625 0.17188-0.37891 0.17188-0.67188 0-0.28125-0.058594-0.49219-0.17188-0.64062-0.10547-0.15625-0.26172-0.23438-0.46875-0.23438-0.19922 0-0.35547 0.078125-0.46875 0.23438-0.10547 0.14844-0.15625 0.35938-0.15625 0.64062 0 0.29297 0.050781 0.51562 0.15625 0.67188 0.11328 0.14844 0.26953 0.21875 0.46875 0.21875zm-0.625-1.9375c0.125-0.17578 0.26562-0.30469 0.42188-0.39062 0.16406-0.082031 0.35156-0.125 0.5625-0.125 0.36328 0 0.66406 0.14844 0.90625 0.4375 0.23828 0.29297 0.35938 0.66797 0.35938 1.125 0 0.46875-0.12109 0.85156-0.35938 1.1406-0.24219 0.29297-0.54297 0.4375-0.90625 0.4375-0.21094 0-0.39844-0.042969-0.5625-0.125-0.15625-0.082031-0.29688-0.21094-0.42188-0.39062v0.4375h-0.96875v-4.1562h0.96875z"/>
  </symbol>
  <symbol id="j" overflow="visible">
   <path d="m0.0625-2.9844h0.95312l0.8125 2.0156 0.6875-2.0156h0.95312l-1.2656 3.2656c-0.125 0.33203-0.27344 0.56641-0.4375 0.70312-0.16797 0.13281-0.39062 0.20312-0.67188 0.20312h-0.54688v-0.64062h0.29688c0.16406 0 0.28516-0.027344 0.35938-0.078125 0.070313-0.054688 0.12891-0.14062 0.17188-0.26562l0.03125-0.09375z"/>
  </symbol>
  <symbol id="e" overflow="visible">
   <path d="m0.45312-2.9844h0.96875v2.9844h-0.96875zm0-1.1719h0.96875v0.78125h-0.96875z"/>
  </symbol>
  <symbol id="i" overflow="visible">
   <path d="m2.875-2.8906v0.76562c-0.125-0.082031-0.25781-0.14453-0.39062-0.1875-0.13672-0.039062-0.27344-0.0625-0.40625-0.0625-0.27344 0-0.48047 0.078125-0.625 0.23438-0.14844 0.15625-0.21875 0.37109-0.21875 0.64062 0 0.28125 0.070313 0.5 0.21875 0.65625 0.14453 0.15625 0.35156 0.23438 0.625 0.23438 0.14453 0 0.28516-0.019531 0.42188-0.0625 0.13281-0.039063 0.25781-0.10938 0.375-0.20312v0.78125c-0.14844 0.0625-0.29688 0.10156-0.45312 0.125-0.15625 0.03125-0.3125 0.046875-0.46875 0.046875-0.54297 0-0.96484-0.13281-1.2656-0.40625-0.30469-0.28125-0.45312-0.67188-0.45312-1.1719 0-0.48828 0.14844-0.86719 0.45312-1.1406 0.30078-0.28125 0.72266-0.42188 1.2656-0.42188 0.15625 0 0.3125 0.015625 0.46875 0.046875 0.15625 0.023437 0.30469 0.0625 0.45312 0.125z"/>
  </symbol>
  <symbol id="b" overflow="visible">
   <path d="m1.875-2.375c-0.21094 0-0.37109 0.078125-0.48438 0.23438-0.10547 0.14844-0.15625 0.35938-0.15625 0.64062 0 0.29297 0.050781 0.51562 0.15625 0.67188 0.11328 0.14844 0.27344 0.21875 0.48438 0.21875 0.20703 0 0.36719-0.070313 0.48438-0.21875 0.11328-0.15625 0.17188-0.37891 0.17188-0.67188 0-0.28125-0.058594-0.49219-0.17188-0.64062-0.11719-0.15625-0.27734-0.23438-0.48438-0.23438zm0-0.6875c0.51953 0 0.92188 0.14062 1.2031 0.42188 0.28906 0.27344 0.4375 0.65234 0.4375 1.1406 0 0.5-0.14844 0.89062-0.4375 1.1719-0.28125 0.27344-0.68359 0.40625-1.2031 0.40625-0.51172 0-0.91406-0.13281-1.2031-0.40625-0.29297-0.28125-0.4375-0.67188-0.4375-1.1719 0-0.48828 0.14453-0.86719 0.4375-1.1406 0.28906-0.28125 0.69141-0.42188 1.2031-0.42188z"/>
  </symbol>
  <symbol id="h" overflow="visible">
   <path d="m3.4688-1.8281v1.8281h-0.96875v-1.3906c0-0.25781-0.007812-0.4375-0.015625-0.53125-0.011719-0.10156-0.03125-0.17578-0.0625-0.21875-0.03125-0.0625-0.085937-0.10938-0.15625-0.14062-0.0625-0.039062-0.13281-0.0625-0.20312-0.0625-0.21094 0-0.37109 0.078125-0.48438 0.23438-0.10547 0.15625-0.15625 0.37109-0.15625 0.64062v1.4688h-0.96875v-2.9844h0.96875v0.4375c0.13281-0.17578 0.28516-0.30469 0.45312-0.39062 0.16406-0.082031 0.34375-0.125 0.53125-0.125 0.34375 0 0.60156 0.10938 0.78125 0.32812 0.1875 0.21094 0.28125 0.51172 0.28125 0.90625z"/>
  </symbol>
  <symbol id="g" overflow="visible">
   <path d="m2.4219-4.1562v0.625h-0.51562c-0.13672 0-0.23438 0.027344-0.29688 0.078125-0.054687 0.054687-0.078125 0.13672-0.078125 0.25v0.21875h0.82812v0.67188h-0.82812v2.3125h-0.95312v-2.3125h-0.46875v-0.67188h0.46875v-0.21875c0-0.32031 0.085937-0.5625 0.26562-0.71875 0.1875-0.15625 0.47266-0.23438 0.85938-0.23438z"/>
  </symbol>
  <symbol id="s" overflow="visible">
   <path d="m0.45312-4.1562h0.96875v4.1562h-0.96875z"/>
  </symbol>
  <symbol id="r" overflow="visible">
   <path d="m3.2344-2.5c0.11328-0.17578 0.25391-0.3125 0.42188-0.40625 0.16406-0.10156 0.35156-0.15625 0.5625-0.15625 0.33203 0 0.58594 0.10938 0.76562 0.32812 0.1875 0.21094 0.28125 0.51172 0.28125 0.90625v1.8281h-0.96875v-1.5625c0.007813-0.019531 0.015625-0.039062 0.015625-0.0625v-0.10938c0-0.21875-0.03125-0.375-0.09375-0.46875s-0.16406-0.14062-0.29688-0.14062c-0.1875 0-0.33594 0.078125-0.4375 0.23438-0.09375 0.14844-0.14062 0.35938-0.14062 0.64062v1.4688h-0.96875v-1.5625c0-0.33203-0.03125-0.54688-0.09375-0.64062-0.054688-0.09375-0.15234-0.14062-0.29688-0.14062-0.17969 0-0.32031 0.078125-0.42188 0.23438-0.09375 0.14844-0.14062 0.35938-0.14062 0.64062v1.4688h-0.96875v-2.9844h0.96875v0.4375c0.11328-0.17578 0.24219-0.30469 0.39062-0.39062 0.15625-0.082031 0.32812-0.125 0.51562-0.125 0.20703 0 0.39062 0.054688 0.54688 0.15625 0.15625 0.09375 0.27344 0.23047 0.35938 0.40625z"/>
  </symbol>
  <symbol id="q" overflow="visible">
   <path d="m3.4688-1.8281v1.8281h-0.96875v-1.3906c0-0.25781-0.007812-0.4375-0.015625-0.53125-0.011719-0.10156-0.03125-0.17578-0.0625-0.21875-0.03125-0.0625-0.085937-0.10938-0.15625-0.14062-0.0625-0.039062-0.13281-0.0625-0.20312-0.0625-0.21094 0-0.37109 0.078125-0.48438 0.23438-0.10547 0.15625-0.15625 0.37109-0.15625 0.64062v1.4688h-0.96875v-4.1562h0.96875v1.6094c0.13281-0.17578 0.28516-0.30469 0.45312-0.39062 0.16406-0.082031 0.34375-0.125 0.53125-0.125 0.34375 0 0.60156 0.10938 0.78125 0.32812 0.1875 0.21094 0.28125 0.51172 0.28125 0.90625z"/>
  </symbol>
  <symbol id="p" overflow="visible">
   <path d="m0.5-3.9844h1.1562l1.4375 2.7344v-2.7344h0.98438v3.9844h-1.1562l-1.4375-2.7344v2.7344h-0.98438z"/>
  </symbol>
  <symbol id="o" overflow="visible">
   <path d="m0.42188-1.1719v-1.8125h0.96875v0.29688 0.60938 0.48438c0 0.24219 0.003906 0.41797 0.015625 0.53125 0.007812 0.10547 0.03125 0.17969 0.0625 0.21875 0.039062 0.0625 0.09375 0.11719 0.15625 0.15625 0.0625 0.03125 0.13281 0.046875 0.21875 0.046875 0.19531 0 0.35156-0.078125 0.46875-0.23438 0.11328-0.15625 0.17188-0.36719 0.17188-0.64062v-1.4688h0.95312v2.9844h-0.95312v-0.4375c-0.14844 0.17969-0.30469 0.30859-0.46875 0.39062-0.15625 0.082031-0.33594 0.125-0.53125 0.125-0.34375 0-0.60938-0.10156-0.79688-0.3125-0.17969-0.21875-0.26562-0.53125-0.26562-0.9375z"/>
  </symbol>
  <symbol id="n" overflow="visible">
   <path d="m0.5-3.9844h1.7031c0.50781 0 0.89844 0.11719 1.1719 0.34375 0.26953 0.21875 0.40625 0.53906 0.40625 0.95312 0 0.41797-0.13672 0.74219-0.40625 0.96875-0.27344 0.21875-0.66406 0.32812-1.1719 0.32812h-0.67188v1.3906h-1.0312zm1.0312 0.75v1.1094h0.5625c0.19531 0 0.34766-0.046875 0.45312-0.14062 0.11328-0.10156 0.17188-0.24219 0.17188-0.42188 0-0.17578-0.058594-0.3125-0.17188-0.40625-0.10547-0.09375-0.25781-0.14062-0.45312-0.14062z"/>
  </symbol>
  <symbol id="m" overflow="visible">
   <path d="m0.45312-2.9844h0.96875v2.9375c0 0.39453-0.10156 0.69531-0.29688 0.90625-0.1875 0.21875-0.46484 0.32812-0.82812 0.32812h-0.48438v-0.64062h0.17188c0.17578 0 0.29688-0.042969 0.35938-0.125 0.070312-0.074219 0.10938-0.23047 0.10938-0.46875zm0-1.1719h0.96875v0.78125h-0.96875z"/>
  </symbol>
 </defs>
 <g>
  <path fill="currentColor" d="m221.09 177.67c-4.1445 0.46875-7.2852 3.9805-7.2852 8.1602v27.375c0 4.1797 3.1406 7.6875 7.2852 8.1602l18.934 2.1445c2.8867 13.301 8.1172 25.727 15.258 36.816l-11.867 14.898c-2.6016 3.2695-2.3398 7.9609 0.61328 10.914l19.359 19.359c2.9531 2.9531 7.6562 3.2148 10.914 0.61328l14.898-11.867c11.09 7.1328 23.516 12.371 36.816 15.258l2.1445 18.934c0.46875 4.1445 3.9805 7.2852 8.1602 7.2852h27.375c4.1797 0 7.6875-3.1406 8.1602-7.2852l2.1445-18.934c13.301-2.8867 25.727-8.1172 36.816-15.258l14.898 11.867c3.2695 2.6016 7.9609 2.3398 10.914-0.61328l19.359-19.359c2.9531-2.9531 3.2148-7.6562 0.61328-10.914l-11.871-14.91c7.1328-11.09 12.371-23.516 15.258-36.816l18.934-2.1445c4.1445-0.46875 7.2852-3.9805 7.2852-8.1602v-27.375c0-4.1797-3.1406-7.6875-7.2852-8.1602l-18.934-2.1445c-2.8867-13.301-8.1172-25.727-15.258-36.816l11.867-14.898c2.6016-3.2695 2.3398-7.9609-0.61328-10.914l-19.359-19.359c-2.9531-2.9531-7.6562-3.2148-10.914-0.61328l-14.91 11.871c-11.09-7.1328-23.516-12.371-36.816-15.258l-2.1445-18.934c-0.46875-4.1445-3.9805-7.2852-8.1602-7.2852h-27.375c-4.1797 0-7.6875 3.1406-8.1602 7.2852l-2.1445 18.934c-13.301 2.8867-25.727 8.1172-36.816 15.258l-14.898-11.867c-3.2695-2.6016-7.9609-2.3398-10.914 0.61328l-19.359 19.359c-2.9531 2.9531-3.2148 7.6562-0.61328 10.914l11.867 14.898c-7.1328 11.09-12.371 23.516-15.258 36.816zm128.91-52.664c41.148 0 74.508 33.359 74.508 74.508 0 41.148-33.359 74.508-74.508 74.508s-74.508-33.359-74.508-74.508c0-41.148 33.359-74.508 74.508-74.508z"/>
  <path fill="currentColor" d="m606.33 453.72h-28.625v-285.13c0-11.375-9.2539-20.641-20.641-20.641h-86.887c-2.1094 0-3.8281 1.7188-3.8281 3.8281s1.7188 3.8281 3.8281 3.8281h86.887c7.1523 0 12.984 5.8203 12.984 12.984v285.13h-440.09v-285.13c0-7.1523 5.8203-12.984 12.984-12.984h86.832c2.1094 0 3.8281-1.7188 3.8281-3.8281s-1.7188-3.8281-3.8281-3.8281l-86.848 0.003906c-11.375 0-20.641 9.2539-20.641 20.641v285.13l-28.621-0.003906c-5.5117 0-9.9961 4.4844-9.9961 9.9961v13.168c0 3.8047 2.2109 7.3398 5.6328 9l10.227 4.9648c13.016 6.3125 27.539 9.6484 42.012 9.6484h416.91c14.469 0 28.996-3.3359 42.012-9.6484l10.227-4.9648c3.4219-1.6641 5.6328-5.1953 5.6328-9v-13.168c0.007813-5.5-4.4766-9.9961-9.9883-9.9961zm2.3398 23.18c0 0.88672-0.51562 1.7188-1.3242 2.1094l-10.227 4.9648c-11.977 5.8086-25.352 8.8828-38.664 8.8828h-416.91c-13.312 0-26.688-3.0742-38.664-8.8828l-10.227-4.9648c-0.79688-0.39453-1.3242-1.2148-1.3242-2.1094v-13.168c0-1.2891 1.0508-2.3398 2.3398-2.3398h185.31l4.0898 12.055c2.0352 5.9922 7.6562 10.02 13.977 10.02h105.89c6.332 0 11.945-4.0234 13.977-10.02 0.67969-2-0.39453-4.1797-2.3945-4.8555-2-0.67969-4.1797 0.39453-4.8555 2.3945-0.98438 2.8867-3.6875 4.8242-6.7266 4.8242h-16.309c5.0859-3.1055 9.0781-7.9414 11.078-13.848 0.066406-0.1875 0.085937-0.37109 0.12109-0.55859h208.5c1.2891 0 2.3398 1.0508 2.3398 2.3398z"/>
  <path fill="currentColor" d="m293.11 195.68h-6.5391c-2.1094 0-3.8281 1.7188-3.8281 3.8281s1.7188 3.8281 3.8281 3.8281h6.5391c2.1094 0 3.8281-1.7188 3.8281-3.8281 0-2.1133-1.7148-3.8281-3.8281-3.8281z"/>
  <path fill="currentColor" d="m407.01 203.34h6.5391c2.1094 0 3.8281-1.7188 3.8281-3.8281s-1.7188-3.8281-3.8281-3.8281h-6.5391c-2.1094 0-3.8281 1.7188-3.8281 3.8281s1.7031 3.8281 3.8281 3.8281z"/>
  <path fill="currentColor" d="m350.05 252.62c-2.1094 0-3.8281 1.7188-3.8281 3.8281v6.5391c0 2.1094 1.7188 3.8281 3.8281 3.8281 2.1094 0 3.8281-1.7188 3.8281-3.8281v-6.5391c0-2.1133-1.7188-3.8281-3.8281-3.8281z"/>
  <path fill="currentColor" d="m350.05 146.4c2.1094 0 3.8281-1.7188 3.8281-3.8281v-6.5391c0-2.1094-1.7188-3.8281-3.8281-3.8281-2.1094 0-3.8281 1.7188-3.8281 3.8281v6.5391c0 2.1094 1.7188 3.8281 3.8281 3.8281z"/>
  <path fill="currentColor" d="m346.23 212.39v5.6094c0 2.1094 1.7188 3.8281 3.8281 3.8281 2.1094 0 3.8281-1.7188 3.8281-3.8281v-5.6094c5.5547-1.6523 9.6133-6.8047 9.6133-12.883 0-6.082-4.0703-11.234-9.6133-12.883v-28.219c0-2.1094-1.7188-3.8281-3.8281-3.8281-2.1094 0-3.8281 1.7188-3.8281 3.8281v28.219c-5.5547 1.6523-9.6133 6.8047-9.6133 12.883 0 6.082 4.0586 11.23 9.6133 12.883zm3.8281-18.668c3.1953 0 5.7852 2.5938 5.7852 5.7852 0 3.1953-2.5938 5.7852-5.7852 5.7852-3.1953 0-5.7852-2.5938-5.7852-5.7852 0-3.1953 2.5898-5.7852 5.7852-5.7852z"/>
  <path fill="currentColor" d="m307.08 161.95c0.74219 0.74219 1.7266 1.1172 2.7109 1.1172s1.957-0.37109 2.7109-1.1172c1.5-1.5 1.5-3.9141 0-5.4141l-4.625-4.625c-1.5-1.5-3.9141-1.5-5.4141 0s-1.5 3.9141 0 5.4141z"/>
  <path fill="currentColor" d="m393.03 237.07c-1.5-1.5-3.9141-1.5-5.4141 0s-1.5 3.9141 0 5.4141l4.625 4.625c0.74219 0.74219 1.7266 1.125 2.7109 1.125s1.957-0.37109 2.7031-1.1172c1.5-1.5 1.5-3.9141 0-5.4141z"/>
  <path fill="currentColor" d="m307.08 237.07-4.625 4.625c-1.5 1.5-1.5 3.9141 0 5.4141 0.74219 0.74219 1.7266 1.1172 2.7031 1.1172 0.97266 0 1.957-0.37109 2.7109-1.125l4.625-4.625c1.5-1.5 1.5-3.9141 0-5.4141-1.4883-1.4922-3.918-1.4922-5.4141 0.007812z"/>
  <path fill="currentColor" d="m390.33 163.08c0.98438 0 1.957-0.37109 2.7109-1.1172l4.625-4.625c1.5-1.5 1.5-3.9141 0-5.4141s-3.9141-1.5-5.4141 0l-4.625 4.625c-1.5 1.5-1.5 3.9141 0 5.4141 0.74219 0.73437 1.7188 1.1172 2.7031 1.1172z"/>
  <use x="70" y="576.40625" xlink:href="#t"/>
  <use x="74.011719" y="576.40625" xlink:href="#d"/>
  <use x="76.710938" y="576.40625" xlink:href="#a"/>
  <use x="80.417969" y="576.40625" xlink:href="#l"/>
  <use x="84.109375" y="576.40625" xlink:href="#c"/>
  <use x="86.722656" y="576.40625" xlink:href="#a"/>
  <use x="90.433594" y="576.40625" xlink:href="#f"/>
  <use x="96.25" y="576.40625" xlink:href="#k"/>
  <use x="100.167969" y="576.40625" xlink:href="#j"/>
  <use x="105.636719" y="576.40625" xlink:href="#e"/>
  <use x="107.507812" y="576.40625" xlink:href="#i"/>
  <use x="110.75" y="576.40625" xlink:href="#b"/>
  <use x="114.507812" y="576.40625" xlink:href="#h"/>
  <use x="118.402344" y="576.40625" xlink:href="#g"/>
  <use x="120.78125" y="576.40625" xlink:href="#e"/>
  <use x="122.65625" y="576.40625" xlink:href="#a"/>
  <use x="126.363281" y="576.40625" xlink:href="#s"/>
  <use x="128.238281" y="576.40625" xlink:href="#f"/>
  <use x="70" y="581.875" xlink:href="#g"/>
  <use x="72.378906" y="581.875" xlink:href="#d"/>
  <use x="75.078125" y="581.875" xlink:href="#b"/>
  <use x="78.832031" y="581.875" xlink:href="#r"/>
  <use x="86.4375" y="581.875" xlink:href="#c"/>
  <use x="89.050781" y="581.875" xlink:href="#q"/>
  <use x="92.941406" y="581.875" xlink:href="#a"/>
  <use x="98.554688" y="581.875" xlink:href="#p"/>
  <use x="103.132812" y="581.875" xlink:href="#b"/>
  <use x="106.890625" y="581.875" xlink:href="#o"/>
  <use x="110.785156" y="581.875" xlink:href="#h"/>
  <use x="116.582031" y="581.875" xlink:href="#n"/>
  <use x="120.589844" y="581.875" xlink:href="#d"/>
  <use x="123.285156" y="581.875" xlink:href="#b"/>
  <use x="127.042969" y="581.875" xlink:href="#m"/>
  <use x="128.917969" y="581.875" xlink:href="#a"/>
  <use x="132.625" y="581.875" xlink:href="#i"/>
  <use x="135.867188" y="581.875" xlink:href="#c"/>
 </g>
</svg>
